<svg xmlns="http://www.w3.org/2000/svg" viewBox="0 0 1024 1024"><circle cx="512" cy="512" r="512" style="fill:#00979d"/><path d="M668 362a138.7 138.7 0 0 0-23.26 1.75c-64.87 9.42-108.4 57.37-132.73 94.16-24.33-36.79-67.86-84.74-132.73-94.16A166 166 0 0 0 356 362c-83.65 0-151.51 67.23-151.51 150S272.57 662 356 662a143 143 0 0 0 23.47-1.75c64.87-9.63 108.4-57.59 132.73-94.38 24.33 36.79 67.86 84.74 132.73 94.38a167 167 0 0 0 23.49 1.75c83 0 151.08-67.23 151.08-150S751.43 362 668 362M371.8 607.69a98.3 98.3 0 0 1-16 1.1c-55.06 0-99.65-43.58-99.65-96.79 0-53.43 44.81-96.79 99.87-96.79a131 131 0 0 1 16 1.09c61.24 9 98.59 70.95 111.39 95.69-13.02 25.01-50.58 86.73-111.61 95.7m296.2 1.1a131 131 0 0 1-16-1.1c-61.24-9-98.8-70.95-111.39-95.69 12.59-24.75 50.15-86.72 111.39-95.69a131 131 0 0 1 16-1.09c55.05 0 99.65 43.58 99.65 96.79-.01 53.42-44.82 96.78-99.65 96.78M313.27 495.93h91.63v28.84h-91.63Zm397 29h-30.9v30.31h-29.61V525h-30.9v-29h30.9v-30.38h29.61v30.31h30.9Z" style="fill:#fff"/></svg>