<svg xmlns="http://www.w3.org/2000/svg" viewBox="0 0 1024 1024"><circle cx="512" cy="512" r="512" style="fill:#f16a24"/><path d="M338.78 529.15a4 4 0 0 1-1-2v-52.07h-17.57v32a28.6 28.6 0 0 1-1.49 9.13 27 27 0 0 1-4 7.52 19.1 19.1 0 0 1-6.09 5 23.8 23.8 0 0 1-8.52 2 8.52 8.52 0 0 1-6.55-2 12.7 12.7 0 0 1-3.5-5 28.3 28.3 0 0 1-1-7.52v-32.27a7.35 7.35 0 0 0-9-8.86H263v14.55h5.48a4.4 4.4 0 0 1 2.53.52 3 3 0 0 1 1 2.5v27.12a30.6 30.6 0 0 0 3 15 17.63 17.63 0 0 0 8.65 8.4 26.5 26.5 0 0 0 13.06 2.5 48 48 0 0 0 8.52-1 18.3 18.3 0 0 0 7-3.5 55 55 0 0 0 5.54-4.54 20.8 20.8 0 0 0 3.5-5.51h.49v5a6.45 6.45 0 0 0 2.53 5.51 9.74 9.74 0 0 0 7 2h16.07v-14.48h-5.66c-2 .49-2.5.49-3 0m-101.92-10a18.6 18.6 0 0 1-9.5 10.53 11.1 11.1 0 0 1-7 1.52 12.18 12.18 0 0 1-7.52-2 17.6 17.6 0 0 1-5.54-5 31 31 0 0 1-3.5-7 38 38 0 0 1-1-8 30.2 30.2 0 0 1 1.49-10 23.8 23.8 0 0 1 4-7 22.3 22.3 0 0 1 5.42-4 14.76 14.76 0 0 1 6.51-1 17.14 17.14 0 0 1 9.13 2.5 22.25 22.25 0 0 1 6.09 7.52 27.7 27.7 0 0 1 2 11.57 17.75 17.75 0 0 1-.49 10.53m10.53-35.65a31.2 31.2 0 0 0-10-7.52 35.3 35.3 0 0 0-13.06-2.53 45.7 45.7 0 0 0-8 1 18.3 18.3 0 0 0-5.51 2 13.9 13.9 0 0 0-4 3c-1 1-2 1.52-2.5 2.53-.52 0-.52.49-1 1v-25.79a8.16 8.16 0 0 0-2.56-7c-1-2-3.5-3-7-2.65h-16.65v14.7h5.51a4.7 4.7 0 0 1 2.53.52 3 3 0 0 1 1.1 2.5v78.82h16v-8a24 24 0 0 0 3 3.5 29 29 0 0 0 4 3 31.8 31.8 0 0 0 6.09 2.53 40.3 40.3 0 0 0 8 1 37.3 37.3 0 0 0 13.06-2.53 25.57 25.57 0 0 0 10.58-7.54 37.3 37.3 0 0 0 7-11.57 47.7 47.7 0 0 0 2.53-15 43 43 0 0 0-2-14.58 37.5 37.5 0 0 0-7-11.54m157 34.22a26.8 26.8 0 0 1-3.53 6.51 20 20 0 0 1-5.51 3.5 24.4 24.4 0 0 1-6.09 1 14.55 14.55 0 0 1-9.53-3 22.4 22.4 0 0 1-6.09-7.55A24.35 24.35 0 0 1 372 507a20 20 0 0 1 2-10 14 14 0 0 1 5.51-6.55 17.3 17.3 0 0 1 9.13-2.5 32.7 32.7 0 0 1 7 1 11.8 11.8 0 0 1 5.54 3 18 18 0 0 1 4 6.09 28 28 0 0 1 1.52 10 40.3 40.3 0 0 1-2.13 9.56m6.08-41.6a6.1 6.1 0 0 0-2.53 2.5 7.4 7.4 0 0 0-1 3v2h-.49a1.55 1.55 0 0 0-.52-1c-.49-1-1.49-1.49-2.5-2.5a29 29 0 0 0-4-3 31.8 31.8 0 0 0-6.09-2.53 45.7 45.7 0 0 0-8.52-1 38.3 38.3 0 0 0-13.58 2.5 24.14 24.14 0 0 0-10 7.52 38.9 38.9 0 0 0-6.09 11.05 41.9 41.9 0 0 0-2 13.55 38.2 38.2 0 0 0 2 13.58 38.9 38.9 0 0 0 6.09 11.05 25.8 25.8 0 0 0 10 7.52 31 31 0 0 0 25.6.49 25.5 25.5 0 0 0 8-6.51h.4v10a20.9 20.9 0 0 1-1.52 8 10.75 10.75 0 0 1-4.38 4.93 15.2 15.2 0 0 1-6.51 3 37.8 37.8 0 0 1-7.55 1v15.07a87 87 0 0 0 11.05-1 34.2 34.2 0 0 0 10-3.5 33.5 33.5 0 0 0 8.52-6.09 22.6 22.6 0 0 0 5.57-9.53 33.5 33.5 0 0 0 2-12.57v-51.04c.49-1 .49-1.52 1-2a3 3 0 0 1 2-.49h5.51v-14.92h-16.53a5.4 5.4 0 0 0-4 1m149.6-2a23.1 23.1 0 0 0-10 2.5 18.9 18.9 0 0 0-7.52 6.55 31.6 31.6 0 0 0-5 9.13h-.49v-8.52a8.55 8.55 0 0 0-2.53-6.51 9.74 9.74 0 0 0-7-2.13h-16v14.55H517a4.35 4.35 0 0 1 2.5.52 2.86 2.86 0 0 1 1 2.5v51.73h17.57v-27.8a23.8 23.8 0 0 1 .52-6.09c.49-2 .49-3.53 1-5.54a16.56 16.56 0 0 1 3.5-6.51 17.7 17.7 0 0 1 10-7 23.8 23.8 0 0 1 6.09-.52h4v-17h-3M745 476.42a11.75 11.75 0 0 0-3.5 5.54l-10.1 38.78c-.52 1-.52 2.53-1 3.53 0 1.49-.52 2.5-.52 4h-.49v-1.16a22 22 0 0 1-.52-2.53c-.49-1-.49-2.5-1-3.5l-13-45.18h-15.61l-13 45.18c-.52 1-.52 2.5-1 3.5a22 22 0 0 1-.52 2.53v1h-.49v-1a22 22 0 0 1-.52-2.53 9.1 9.1 0 0 0-1-3.5l-10.53-38.66a8.92 8.92 0 0 0-3.53-5.51 12.4 12.4 0 0 0-6.51-1.52h-12.22V490H652a3.93 3.93 0 0 1 2.53.49 6.9 6.9 0 0 1 1.49 2l17.08 52.21h20.09l12.18-39.58c.52-1 .52-2.5 1-3.5l.52-3v-1h.49v1a18 18 0 0 1 .52 3c.49 1 .49 2.5 1 3.5l12.18 39.58h20.06l17.08-52.21a6.9 6.9 0 0 1 1.49-2 3.93 3.93 0 0 1 2.53-.49h2v-14.92h-12.13a13.36 13.36 0 0 0-7 1.49m74.8 43.2a23.4 23.4 0 0 1-4 7 21.7 21.7 0 0 1-5.51 3.87 15.4 15.4 0 0 1-6.51 1.52 17.17 17.17 0 0 1-9.13-2.53 22.25 22.25 0 0 1-6.09-7.52 28.2 28.2 0 0 1-2-11.54 24.4 24.4 0 0 1 1.52-9.13 14.46 14.46 0 0 1 4-6.45 16.29 16.29 0 0 1 12.54-5.51 12.18 12.18 0 0 1 7.52 2 17.6 17.6 0 0 1 5.63 4.9 31 31 0 0 1 3.5 7 38 38 0 0 1 1 8 51 51 0 0 0-2.53 8Zm22.1 10a2.59 2.59 0 0 1-2-1 3.8 3.8 0 0 1-1-2v-70a8.16 8.16 0 0 0-2.62-7 9.92 9.92 0 0 0-7-2.13h-16.64v14.7h5.51c1 0 1.52 0 2 .49a3 3 0 0 1 1 2.53v16h-.52a1.58 1.58 0 0 0-.49-1c-.49-1-1.49-1.49-2-2a10.4 10.4 0 0 0-4-2.5 27.4 27.4 0 0 0-6.09-2 42.4 42.4 0 0 0-8-1 37.8 37.8 0 0 0-13 2.5A21.3 21.3 0 0 0 777 483a33 33 0 0 0-6.55 11.54 46.9 46.9 0 0 0-2.5 15.07 60 60 0 0 0 2 14.55 28.8 28.8 0 0 0 6.51 11.54 31.3 31.3 0 0 0 10 7.55 35.9 35.9 0 0 0 13.06 2.5 48 48 0 0 0 8.52-1 11.14 11.14 0 0 0 6.09-3 13.5 13.5 0 0 0 4-3.5 27 27 0 0 0 3-4h.49v2.53a7.4 7.4 0 0 0 1 3.5 5.2 5.2 0 0 0 3 2.5 14.6 14.6 0 0 0 5 1h16v-14.63l-5 .52Zm-343-7.18a18.4 18.4 0 0 1-3 2.53l-4.51 3c-2 1-4 1.49-6.09 2.5a28.8 28.8 0 0 1-7 1 20.9 20.9 0 0 1-8-1.49 19.85 19.85 0 0 1-6.94-4 20.5 20.5 0 0 1-5-6.55 24.35 24.35 0 0 1-2-9.53 25.8 25.8 0 0 1 2.5-11.05 15.56 15.56 0 0 1 7.55-7.52 20.24 20.24 0 0 1 11.05-3 10.2 10.2 0 0 1 3.53.49 9.1 9.1 0 0 1 3.5 1 10.4 10.4 0 0 1 2.53 1.49 4 4 0 0 1 1 2.5v4h15.56v-9.13a8.8 8.8 0 0 0-2-6.09 12.94 12.94 0 0 0-4.54-4.54l-6.09-3c-2-.49-4.51-1-7-1.49a23.8 23.8 0 0 0-6.09-.52 39.85 39.85 0 0 0-16.07 3 30.1 30.1 0 0 0-12.18 8 29 29 0 0 0-7.72 11.62 40.4 40.4 0 0 0 0 28.13 35 35 0 0 0 7.52 11.54 39.1 39.1 0 0 0 12.18 8 39.85 39.85 0 0 0 16.07 3 37.5 37.5 0 0 0 10.55-1.48 59 59 0 0 0 8.52-3 31 31 0 0 0 6.09-3.53 47 47 0 0 0 5-4.51l-7.52-12.18c-.52-.52-1-.52-1.52.49m127.56-3.65a21.3 21.3 0 0 1-4.51 7 19.4 19.4 0 0 1-6.45 4.51 22.6 22.6 0 0 1-8 1.49 20.7 20.7 0 0 1-8-1.49 15.2 15.2 0 0 1-6.55-4.51 21.3 21.3 0 0 1-4.51-7 27.9 27.9 0 0 1 0-18.08 21.3 21.3 0 0 1 4.51-7 19 19 0 0 1 6.55-4.51 22.6 22.6 0 0 1 8-1.52 21.3 21.3 0 0 1 15.07 6.09 17 17 0 0 1 4.54 7 24.4 24.4 0 0 1 1.49 9.13 57 57 0 0 1-2 9.13m8-35.13a32.24 32.24 0 0 0-12.54-7.52 39.6 39.6 0 0 0-15.22-2.53 49.5 49.5 0 0 0-15.07 2.53 36.5 36.5 0 0 0-12.54 7.52 26.8 26.8 0 0 0-8 11.54 36.2 36.2 0 0 0-3 14.58 34.3 34.3 0 0 0 3 14.55 36.2 36.2 0 0 0 8 11.54 29 29 0 0 0 12.54 7.55 39.6 39.6 0 0 0 15.07 2.5 47.1 47.1 0 0 0 15.22-2.5 36.5 36.5 0 0 0 12.54-7.55 32.6 32.6 0 0 0 8.52-11.54 35.9 35.9 0 0 0 3-14.55 34.4 34.4 0 0 0-3-14.58 32.85 32.85 0 0 0-8.52-11.54" style="fill:#fff"/></svg>