<svg xmlns="http://www.w3.org/2000/svg" viewBox="0 0 1024 1024"><circle cx="512" cy="512" r="512" style="fill:#002d72"/><path d="M512 271.27A1074 1074 0 0 0 287.78 295l-.72.15-.69.22C274.63 298.21 266 309.24 266 322v39.91c0 287.81 178.08 404.56 232.68 433.49a28.4 28.4 0 0 0 13.38 3.51 27.66 27.66 0 0 0 13.34-3.55C579.87 766.49 758 649.7 758 361.89V322a27.69 27.69 0 0 0-20.24-26.62l-.25-.1-1.55-.35a1072.5 1072.5 0 0 0-224-23.63Zm0 16.09a1054.6 1054.6 0 0 1 220.57 23.26l.17.06a11.5 11.5 0 0 1 9.19 11.32v39.92a614 614 0 0 1-4.44 74.36 1097.1 1097.1 0 0 0-450.9.07 613 613 0 0 1-4.45-74.43V322a11.55 11.55 0 0 1 8.78-11.2l.27-.09A1054.5 1054.5 0 0 1 512 287.36m-77.22 22.42c-13.45 0-26 1.08-36.29 3.23 0 0-23.51 11.64-23.86 12.38l-36.43 80.38a2.48 2.48 0 0 0 2.75 3.71c55.36-10.5 118.95-13.74 171-13.74 52.07 0 115.66 3.24 171 13.74a2.49 2.49 0 0 0 2.76-3.71l-36.3-80.37c-.39-.74-23.9-12.38-23.9-12.38-29.89-6.27-79.12-3.52-113.46 9.11h-.12c-22.55-8.29-51.48-12.32-77.16-12.34Zm-32.29 14.55-17.57 50c35.58-6.72 74.94-9.23 118.56 5l-.08 3.85c-39.46-1.56-107.56-1.56-141.71 10.66L386 333.18l16.54-8.85Zm218.46 0 16.56 8.85 24.26 60.74C629.38 381.7 561.27 381.7 520 383.27v-3.85c43.61-14.28 83-11.77 118.56-5l-17.65-50ZM502 435.17v343.65c-60.19-33.21-181.06-127.4-212.3-320.52l1.47-.31A1071 1071 0 0 1 502 435.16Zm20.07 0c14.2.12 28.4.49 42.55 1.19v72.34L522 480.36v-45.19Zm85.12 4.14c14.23 1.26 28.43 2.72 42.57 4.55v121.48l42.52 28.31V450.29c13.6 2.32 27.16 4.8 40.64 7.65l1.45.32c-8.43 52.13-23.42 97-42 135.48 0 0-.07.16-.11.21a441.5 441.5 0 0 1-42.48 70.56A430.6 430.6 0 0 1 607.17 714v-77.88l-42.57-28.33V751a360 360 0 0 1-42.6 27.82V579.45l42.55 28.34V508.7l42.62 28.3v-97.7Zm0 196.81 42.57 28.32v-99.1L607.17 537ZM410.92 472a77.9 77.9 0 1 0 77.9 77.9 78 78 0 0 0-77.9-77.9m-14.11 11.31a103 103 0 0 0-18.62 28.32A135 135 0 0 1 359 506a68.1 68.1 0 0 1 37.83-22.69Zm28.28 0A68.13 68.13 0 0 1 462.88 506a134 134 0 0 1-19.2 5.62 103 103 0 0 0-18.58-28.3Zm-9.28 4.55a96.3 96.3 0 0 1 17.79 25.51 155 155 0 0 1-17.79 1.49zM406 488v26.89a157 157 0 0 1-17.66-1.48A96.9 96.9 0 0 1 406 488m-52.93 26.22a139.6 139.6 0 0 0 21.68 6.72 94.8 94.8 0 0 0-4.34 24.06h-27.32a67.6 67.6 0 0 1 10-30.78Zm115.71 0a67.5 67.5 0 0 1 10 30.78h-27.3a95.4 95.4 0 0 0-4.33-24.06 139 139 0 0 0 21.62-6.72Zm-84.21 8.57A168.5 168.5 0 0 0 406 524.7V545h-25.73a83.4 83.4 0 0 1 4.3-22.21m52.81 0a85.7 85.7 0 0 1 4.26 22.21h-25.81v-20.3a171 171 0 0 0 21.55-1.94Zm-94.28 32h27.32a96 96 0 0 0 4.31 24.06 139 139 0 0 0-21.66 6.72 67.3 67.3 0 0 1-9.97-30.78m37.17 0H406v20.27a169 169 0 0 0-21.43 1.94 83 83 0 0 1-4.3-22.19Zm35.56 0h25.81a83.8 83.8 0 0 1-4.31 22.21 165.5 165.5 0 0 0-21.5-1.94Zm35.66 0h27.28a67.5 67.5 0 0 1-10 30.78 138 138 0 0 0-21.62-6.71 95.5 95.5 0 0 0 4.33-24.07ZM406 584.89v26.89a97.2 97.2 0 0 1-17.66-25.41 160 160 0 0 1 17.66-1.48m9.83 0a157 157 0 0 1 17.72 1.49 95.6 95.6 0 0 1-17.72 25.45zm-37.63 3.25a103 103 0 0 0 18.62 28.32A68.07 68.07 0 0 1 359 593.77a136 136 0 0 1 19.2-5.62Zm65.48 0a134 134 0 0 1 19.2 5.61 68.06 68.06 0 0 1-37.78 22.68 103 103 0 0 0 18.58-28.29" style="fill:#fff"/></svg>