<svg xmlns="http://www.w3.org/2000/svg" viewBox="0 0 1024 1024"><circle cx="512" cy="512" r="512" style="fill:#ff6740"/><path d="M735.56 566a8.71 8.71 0 0 1-8.71 8.71h-392.3a8.72 8.72 0 0 1 0-17.43h392.3a8.72 8.72 0 0 1 8.71 8.72m-228.19 85c-1.91-1.88-3.94-3.65-6-5.34A67.23 67.23 0 0 0 453 685.23a28.93 28.93 0 0 1 15.65 9.56 29 29 0 0 1 2 2.72 28.5 28.5 0 0 1 4.47 11.88 5 5 0 0 1 .09.63 18.6 18.6 0 0 1 .2 2.74v.68a5 5 0 0 1 0 .54v.07a28.2 28.2 0 0 0 2.07 10.17 29.13 29.13 0 0 0 11.61 13.84 28.92 28.92 0 0 0 43.59-19.2 23.6 23.6 0 0 0 .46-3.37v-2.77A86.44 86.44 0 0 0 507.37 651m219.48-60.61h-392.3a8.71 8.71 0 1 0 0 17.43h328.1v48.5l25-14.46 25 14.47v-48.56h14.27a8.71 8.71 0 0 0 0-17.43zm-90.6-46.72c2.26-1.46 4.37-3.09 6.51-4.65h-1.61c-1.67 1.47-3.32 2.98-4.9 4.6zm145.19-77.1a43.5 43.5 0 0 0-1.87-7.16l-.48-.41-.49-.41q-1.23-1.07-2.42-2.19t-2.34-2.28a14.6 14.6 0 0 0-5.05 5.15 14.42 14.42 0 0 0 12.5 21.62h.23c0-.3.1-.6.15-.9s.11-.6.14-.91q.15-1.21.21-2.45c0-.82.07-1.65.07-2.48a44.6 44.6 0 0 0-.65-7.63zm-.93 19.11a44.48 44.48 0 0 1-16.3 24.16 14 14 0 0 0-1.22.83 10 10 0 0 0-.88.65 22.53 22.53 0 0 0-7.54 11c-.11.34-.22.71-.3 1.06A22.64 22.64 0 0 1 732.72 539h-90a47.6 47.6 0 0 1 5.65-3.66c2.09-1.26 4.1-2.64 6.23-3.82l6.49-3.36a180.5 180.5 0 0 1 27.08-10.76 251 251 0 0 1 28.38-6.94c4.81-.89 9.65-1.64 14.51-2.21 4.86-.73 9.75-1.11 14.67-1.5a144.3 144.3 0 0 0-29.62.76 166 166 0 0 0-29.1 6.18 133.2 133.2 0 0 0-27.34 11.84A102 102 0 0 0 641.15 539H343.71a43.51 43.51 0 0 0-43.52 43.52c0 1 0 2 .11 2.94A43.47 43.47 0 0 0 343 626a7 7 0 0 0 .74 0 7 7 0 0 0 .74 0h102a87 87 0 0 1 24.35 3.47A86 86 0 0 1 494 640.22a74.08 74.08 0 0 0-47.48 42.28l-.84 2H322.27a81.84 81.84 0 0 1-38.14-10.48 82.36 82.36 0 0 1-42.21-72V553.9c0-5 .19-10 .59-14.92a192.2 192.2 0 0 1 111.8-160 190.2 190.2 0 0 1 62.06-16.47c5.84-.55 11.76-.83 17.73-.83a191.6 191.6 0 0 1 64.78 11.2 188 188 0 0 1 19.67 8.32c2 1 4 2 6 3.07.19-.34.4-.66.59-1q2.35-4.15 4.87-8.18t5.26-8a205.43 205.43 0 0 1 134.57-85.36 6.3 6.3 0 0 1 1-.15 2 2 0 0 1 .39 0 5.61 5.61 0 0 1 5.61 5.62 5.7 5.7 0 0 1-.16 1.32 82.78 82.78 0 0 0-64.72 92.82 155.1 155.1 0 0 1 47.18-30.06v-2a113 113 0 0 1 17.55-60.65 5.4 5.4 0 0 1-.5 1.29 98 98 0 0 0-12.18 47.44c0 1.5 0 3 .11 4.49.51.13 1 .3 1.52.43 3.18.82 6.34 1.7 9.45 2.71 1.4.46 2.76 1 4.15 1.5 2.18.78 4.37 1.55 6.5 2.42 1.57.64 3.1 1.37 4.64 2.06 1.88.84 3.76 1.67 5.6 2.58 1.63.81 3.22 1.69 4.81 2.55s3.35 1.81 5 2.78 3.25 2 4.86 3 3 1.94 4.48 3a164 164 0 0 1 4.82 3.48q2 1.52 4 3.11 2.4 1.92 4.72 3.93c1.22 1.06 2.42 2.15 3.61 3.24 1.55 1.43 3.08 2.87 4.57 4.36.39.39.77.81 1.16 1.2 1.72 1.76 3.48 3.49 5.12 5.33l.71.81a22.55 22.55 0 0 1 4.86 10.8v.13c.07.7.15 1.4.23 2.09a88 88 0 0 0 10.72 32l.13.26a88.8 88.8 0 0 0 10.78 14.81 19.5 19.5 0 0 0-6 6.33 19.22 19.22 0 0 0 15.95 28.85zm-94.12-49.12a5.5 5.5 0 0 0 5.49 5.49 5.4 5.4 0 0 0 2.44-.57 2 2 0 0 1 .48-.28l.09-.06a30 30 0 0 1 4.12-1.88 29 29 0 0 1 4.75-1.33 29.4 29.4 0 0 1 5.93-.59c.85 0 1.68 0 2.51.11a30.35 30.35 0 0 1 12.76 4 5.6 5.6 0 0 0 2.61.65 5.48 5.48 0 0 0 3-10c-.18-.11-.35-.22-.55-.33-.7-.39-1.39-.76-2.11-1.09A40.8 40.8 0 0 0 717 427c-.9-.16-1.8-.34-2.72-.44-1.08-.12-2.19-.15-3.29-.19-.42 0-.82-.07-1.24-.07a41.2 41.2 0 0 0-8.1.83c-.27.05-.54.07-.81.13a41.5 41.5 0 0 0-8.17 2.82c-1.1.5-2.24.95-3.28 1.54a5 5 0 0 0-.55.33c-.13.08-.22.2-.34.29a5.39 5.39 0 0 0-2.11 4.28zm60.06 59.79a145 145 0 0 0-29.08-5.66 166.4 166.4 0 0 0-29.75-.25 133.5 133.5 0 0 0-29.25 5.56 107 107 0 0 0-26.83 12.64c4.65-1.73 8.92-4.17 13.66-5.48 2.31-.78 4.57-1.7 6.91-2.39l7.07-1.89a181.3 181.3 0 0 1 28.77-4.66 250 250 0 0 1 29.21-.65c4.89.17 9.77.48 14.65 1 4.9.36 9.75 1.05 14.64 1.74zm4.27-8.94a144.2 144.2 0 0 0-27.92-9.91 166 166 0 0 0-29.38-4.67 133.7 133.7 0 0 0-29.77 1.17 107 107 0 0 0-28.41 8.52c4.86-1 9.44-2.8 14.33-3.39 2.4-.43 4.77-1 7.19-1.34L664 477a181.5 181.5 0 0 1 29.14-.34 251 251 0 0 1 29 3.7c4.81.9 9.59 1.93 14.34 3.14 4.81 1.06 9.52 2.5 14.24 3.87z" data-name="MangaDex logo (monochrome version by krisu)" style="fill:#fff"/></svg>