<svg xmlns="http://www.w3.org/2000/svg" viewBox="0 0 1024 1024"><circle cx="512" cy="512" r="512" style="fill:#e57000"/><path d="M512 497.8 342.7 311.6c6.6-6.6 14.2-11.7 22.9-15.5s18.1-5.7 28.1-5.7c10.7.1 20.4 2.2 29.3 6.3s16.6 9.8 23.1 17l65.8 71.9 65.4-71.9c6.8-7.2 14.7-12.9 23.6-17 9-4.1 18.7-6.2 29.2-6.3 10 .1 19.4 2 28.1 5.7 8.7 3.8 16.4 8.9 22.9 15.5zm0 28.4L342.7 712.4c6.6 6.6 14.2 11.7 22.9 15.5s18.1 5.7 28.1 5.7c10.5-.1 20.2-2.2 29.2-6.3s16.9-9.8 23.6-17l65.4-71.9 65.8 71.9c6.5 7.2 14.2 12.9 23.1 17s18.6 6.2 29.3 6.3c10-.1 19.4-2 28.1-5.7 8.7-3.8 16.4-8.9 22.9-15.5zM497.8 512 370.3 372.2c-7.4-7.9-16-14.1-25.9-18.7-9.8-4.5-20.5-6.8-31.9-6.9-11 .1-21.3 2.2-30.8 6.3-9.6 4.1-17.9 9.8-25.1 16.9L385.9 512 256.5 654.2c7.2 7.4 15.6 13.2 25.1 17.4 9.6 4.2 19.8 6.3 30.8 6.3q17.25-.15 32.1-6.9c9.9-4.5 18.5-10.8 25.7-18.7zm28.4 0 127.5 140.3c7.2 7.9 15.8 14.1 25.7 18.7q14.85 6.75 32.1 6.9c11-.1 21.3-2.2 30.8-6.3 9.6-4.2 17.9-9.9 25.1-17.4L638.1 512l129.4-142.2c-7.2-7.2-15.6-12.8-25.1-16.9-9.6-4.1-19.8-6.2-30.8-6.3-11.4.1-22.1 2.4-31.9 6.9s-18.5 10.8-25.9 18.7z" style="fill:#fff"/></svg>