<svg xmlns="http://www.w3.org/2000/svg" viewBox="0 0 1024 1024"><circle cx="512" cy="512" r="512" style="fill:#fffc00"/><path d="M516.39 272.91c21.12 0 92.74 5.89 126.51 81.52 11.29 25.45 8.6 68.67 6.38 103.4l-.06 1.28c-.26 3.84-.47 7.36-.64 10.88a16.6 16.6 0 0 0 8.55 1.92c6.4-.34 14.06-2.56 22-6.42a21.25 21.25 0 0 1 9.9-2.22 29.2 29.2 0 0 1 10.86 1.92c9.6 3.18 15.66 10.22 15.66 17.88q.48 14.37-25.88 24.92c-1.9.62-4.46 1.6-7.34 2.54-9.6 2.88-24.3 7.68-28.44 17.28-1.92 4.78-1.3 11.18 2.56 18.52l.32.32c1.28 2.9 32.55 74.13 102.21 85.63a10.64 10.64 0 0 1 9 10.86 12.9 12.9 0 0 1-1 4.8c-5.12 12.14-27.16 21.08-67.12 27.11-1.26 1.94-2.56 8-3.5 12.16a86 86 0 0 1-2.86 11.8c-1.62 5.78-5.76 8.64-11.84 8.64h-.64a68 68 0 0 1-11.48-1.58 128.7 128.7 0 0 0-27.16-2.88 103.7 103.7 0 0 0-19.38 1.58c-12.8 2.22-24 9.9-36.76 18.86-18.2 12.78-39 27.48-70.27 27.48-1.28 0-2.54-.32-3.84-.32h-3.18c-31.32 0-51.78-14.4-70-27.48-12.78-9-23.62-16.62-36.42-18.86a141 141 0 0 0-19.8-1.58c-11.52 0-20.44 1.9-27.14 3.18a61.4 61.4 0 0 1-11.52 1.58c-8 0-11.16-4.78-12.44-9s-1.92-8.3-2.88-12.1-2.24-10.54-3.54-12.16c-40.92-4.74-62.93-13.7-68-26.15a12.8 12.8 0 0 1-1.17-4.8 10.58 10.58 0 0 1 9-10.86c69.63-11.52 100.91-82.75 102.21-85.76l.34-.62c3.84-7.36 4.78-13.76 2.54-18.54-4.16-9.26-18.86-14-28.42-17.26a47.7 47.7 0 0 1-7.38-2.54c-23.62-9.28-26.82-19.84-25.54-27.16 1.92-10.22 14.38-16.92 24.92-16.92a21.6 21.6 0 0 1 8.17 1.58c9 4.14 16.83 6.4 23.55 6.4a20.2 20.2 0 0 0 9.92-2.24l-1-12.14c-2.09-34.69-4.8-77.89 6.55-103.19 32.83-75.24 104.24-81 125.31-81l8.94-.32h1.28Z" style="fill:#fff"/></svg>