<svg xmlns="http://www.w3.org/2000/svg" viewBox="0 0 1024 1024"><circle cx="512" cy="512" r="512" style="fill:#1d4ed8"/><path d="M518.82 560.23h-.06V753h224.16V560.23h-.06a112.08 112.08 0 0 0-224 0Zm30.68-207.88a81.35 81.35 0 1 1 81.35 81.35 81.38 81.38 0 0 1-81.35-81.35m-200.35 26.34c-65.16 0-118.07 49.82-118.07 111.17S284 601 349.15 601H386a118.12 118.12 0 0 0 118-118V378.69Zm-12.39 130.93q0 4.34-2 6.57a6.71 6.71 0 0 1-5.27 2.23q-7.15 0-7.15-8.79V485.2q0-6.94-2.07-10.67t-7.84-3.73a11.75 11.75 0 0 0-7 2.2 13.23 13.23 0 0 0-4.63 6q-1.17 3.23-1.17 11.49v19.12q0 4.29-1.93 6.54a6.71 6.71 0 0 1-5.38 2.25q-7.15 0-7.15-8.79v-62.7q0-4.39 1.88-6.59a6.56 6.56 0 0 1 5.27-2.2 6.75 6.75 0 0 1 5.38 2.22q1.93 2.23 1.93 6.57v21.45a31 31 0 0 1 5.38-5 19.4 19.4 0 0 1 5.8-2.78 24.3 24.3 0 0 1 6.83-.93 20 20 0 0 1 9.77 2.33 18.1 18.1 0 0 1 8.77 12.58 46 46 0 0 1 .53 7.39Zm28.36-8.37a13.29 13.29 0 0 0 12.21 7.57 17.3 17.3 0 0 0 4.74-.61 15.5 15.5 0 0 0 4.16-1.9 32 32 0 0 0 3.71-2.78q1.69-1.48 4.39-4a4.75 4.75 0 0 1 3.18-1 5.23 5.23 0 0 1 3.6 1.22 4.35 4.35 0 0 1 1.38 3.44 9.4 9.4 0 0 1-1.53 4.58 18.2 18.2 0 0 1-4.64 5 26.4 26.4 0 0 1-7.79 4 33.5 33.5 0 0 1-10.78 1.59q-13.93 0-21.66-7.95t-7.73-21.55a36 36 0 0 1 1.9-11.89 26.2 26.2 0 0 1 5.56-9.4 24.1 24.1 0 0 1 9-6 32.3 32.3 0 0 1 11.86-2.09 28.14 28.14 0 0 1 14.54 3.57 23.5 23.5 0 0 1 9.08 9.24 24.3 24.3 0 0 1 3 11.54q0 5.45-3.12 7.07t-8.79 1.61h-28.25a19.2 19.2 0 0 0 1.98 8.74m95.2-32.41q-.48 1.85-1.17 3.76L440.3 522a57.6 57.6 0 0 1-4.77 10.22 15.7 15.7 0 0 1-6.17 5.69q-3.84 2-10.35 2-6.36 0-9.53-1.38a5 5 0 0 1-3.18-5 4.88 4.88 0 0 1 1.51-3.84 6.52 6.52 0 0 1 4.47-1.35 8.3 8.3 0 0 1 2.28.32 10.8 10.8 0 0 0 2.38.32 8.6 8.6 0 0 0 3.92-.74 6.9 6.9 0 0 0 2.57-2.57 39.4 39.4 0 0 0 2.62-5.38l1.33-3.23-17.79-44.8a16.8 16.8 0 0 1-1.64-5.61 6.57 6.57 0 0 1 1-3.44 7.1 7.1 0 0 1 2.62-2.54 6.9 6.9 0 0 1 3.47-1 5.67 5.67 0 0 1 4.71 2 18.3 18.3 0 0 1 2.81 5.69l12.23 35.59 11.6-33.1a57 57 0 0 1 2.49-6.3 7.4 7.4 0 0 1 2.36-3.07 6.54 6.54 0 0 1 3.52-.8 6.2 6.2 0 0 1 3.15.88 6.1 6.1 0 0 1 2.33 2.36A6.36 6.36 0 0 1 461 466q-.21 1-.68 2.84m-75 4.42q3.47 3.68 4 11.1h-26.18q.74-7.31 4.21-11a11.57 11.57 0 0 1 8.87-3.73 12 12 0 0 1 9.13 3.63Z" style="fill:#fff"/></svg>