<svg xmlns="http://www.w3.org/2000/svg" viewBox="0 0 1024 1024"><circle cx="512" cy="512" r="512" style="fill:#222"/><path d="M783.3 418.1c-1.3 2-4 4-8.1 6.1-6.5 3.1-13.1 6.5-20 9.9-6.8 3.5-14.1 7.3-21.8 11.4-.8 4.7-1.7 9.8-2.5 15.2s-1.8 10.9-2.8 16.3c5.3-2.7 10.8-5.2 16.3-7.5l1.3-.5c3.7-1.4 6.7-2 9-1.7s4.5 1.7 6.4 4.3v-.2c2 2.3 3.5 4.6 4.6 6.9s2.1 4.7 3.2 7.1l-.2-.1q1.2 2.55 1.5 4.2c.4 2.1-.1 4.1-1.3 6s-3 3.6-5.2 5.3c-2.2 1.6-4.8 3.3-7.9 4.9-3 1.6-6.2 3.3-9.4 5.1l.2-.1c-4.7 2.8-9.2 5.5-13.6 8.1s-8.8 5.2-13 7.9c-.6 2.9-1.2 6-1.7 9.3s-.7 6.2-.6 8.5c4.7-2.7 9.5-5.4 14.5-8.1s10.4-5.2 16.1-7.3c3.4-1.3 6.3-1.7 8.6-1.2s4.3 2.1 5.9 4.6v-.2q3 3.6 5.7 8.4c1.8 3.2 3 6.4 3.5 9.6.5 2.9.1 5.1-1.1 6.8s-3.6 3.6-7.1 5.7c-7.8 4.9-15.9 9.8-24.1 14.9s-16.2 10-23.9 14.8l.2-.3c-3.4 2.2-6.3 3.8-8.7 4.7-2.8 1.1-5.3 1.6-7.5 1.7-2.2 0-4.3-.3-6.3-1.1s-4.1-1.8-6.3-3-4.5-2.7-7.1-4.4v.2c-2.1-1.2-3.8-2.7-5.2-4.6s-2.3-4.4-2.9-7.7c-.3-1.9-.4-3.8-.4-5.8L684.1 435l2-3.6c4.9-3.2 10.2-6.6 16-10.2s11.9-7.2 18.2-10.9c6.3-3.6 12.9-7.2 19.5-10.7 6.7-3.5 13.4-6.6 20-9.5l.9-.4c4.1-1.6 7.3-1.9 9.8-1.2 2.5.8 4.6 2.6 6.2 5.4v-.2c1.7 2.4 3 4.4 3.8 6.1s1.6 3.5 2.3 5.5l-.2-.1c.8 1.4 1.3 3 1.6 4.8.8 3.5.4 6.2-.9 8.1m-117.7 72.6c-.2.3-.3.6-.4.9-.4 2.2-1.1 4.1-1.9 5.5-.8 1.5-2.8 2.7-5.8 3.7-.6.2-1.2.4-1.9.7-.7.2-1.5.4-2.3.4-4 .5-7.5.6-10.3.2q-4.2-.6-7.2-2.7-3-1.95-4.8-5.4-1.95-3.45-3-8.1-.45-3.3-.6-6.9c-.1-2.4-.3-4.4-.5-6.2-.2-1.3-.4-2.4-.8-3.5-.4-1-.9-1.7-1.5-2-1.7.7-3.7 3.2-6.1 7.5-2.3 4.3-4.7 9.4-7 15.4-2.3 5.9-4.5 12.3-6.5 19.1q-3 10.2-4.8 18.9c-1.5 7.5-2.4 14.9-2.8 22.1s-.3 13.4.4 18.6c.4 3.4 1.1 6.1 1.9 8.2.9 2.1 2 3.2 3.5 3.3l.7-.2q5.4-1.8 15.6-19.2c5-8.1 11.2-13.4 18.7-16.1 1.6-.6 3.3-1 5-1.3s3.5-.5 5.4-.5c3.1-.1 5.5.5 7 1.7s2.5 3 2.8 5.4c.2 1.6.1 3.5-.4 5.5-.5 2.1-1 4.3-1.7 6.6-3.5 11.5-8.8 21.7-16 30.5-7.2 8.9-16.3 15.2-27.4 19.1-.9.3-1.7.6-2.4.8s-1.3.4-1.9.5l.2-.1c-5.3 1.2-10.1 1.8-14.4 1.9-4.3 0-8.3 0-11.8-.2l.2-.1c-1.8.1-3.7-.1-5.7-.7s-4-1.5-5.9-2.7-3.6-2.6-5.2-4.2c-1.6-1.7-2.9-3.4-3.8-5.3v.4c-1.8-2.9-3.3-6.4-4.5-10.3s-2-8.2-2.6-12.8c-.9-7.2-1.1-15.4-.4-24.6.6-9.2 2-18.8 4.1-28.7s4.9-19.8 8.3-29.5c3.5-9.8 7.5-18.8 12.2-27.1s9.9-15.5 15.8-21.5c5.9-6.1 12.2-10.3 19.2-12.7.6-.2 1.2-.4 1.7-.6.7-.2 1.3-.4 1.9-.5l-.2.1c2.9-.6 6-1.2 9.2-1.5 3.2-.4 6.3-.5 9.3-.5 3 .1 5.9.3 8.7.8s5.2 1.1 7.2 2c5.2 2.1 8.8 4.9 10.7 8.4s3.1 7.7 3.8 12.5c.3 2.6.6 5.4.7 8.5s.2 6.2.1 9.3-.3 6.1-.6 9.1-.7 5.7-1.2 8.1M537.6 619c-3.1.8-5.9 1.5-8.5 2s-5.4.5-8.3 0l.2.1q-5.25-.3-7.2-2.7c-1.4-1.6-2.3-4.7-2.8-9.3-.6-5.6-1.2-12.2-1.6-19.8l-.5-3.4c-7.4 3.2-14.6 6.4-21.7 9.6s-13.3 6.3-18.7 9.3c-1.6 3.7-3 7.7-4.4 11.9s-2.8 8.2-4.3 11.8c-1.5 3.7-2.9 6.8-4.5 9.3-1.5 2.5-3.3 4.1-5.2 4.6-1.7.5-3.7.5-5.8.2l-2-.5-5.4-1.5c-1.8-.6-3.4-1.3-4.9-2.1-1.4-.9-2.6-1.9-3.6-3.1s-1.5-2.8-1.6-4.6c-.1-1.3 0-2.7.2-4.3s.6-3.5 1.3-5.7c3.2-9.9 7.2-21.2 11.8-33.8 4.7-12.7 9.6-25.7 14.8-38.9s10.4-26.2 15.6-38.7c5.2-12.6 10.1-23.6 14.5-33.1 1.7-3.5 3.8-6.7 6.2-9.4 2.5-2.7 5.9-4.7 10.4-6 7.5-2.1 13.9-3.1 19-3.2 5.2-.1 9.7.1 13.6.4l3 .1c3.5.4 5.8 1.3 7.1 2.9s2 3.9 2.2 6.9c0 .6.1 1.2.1 1.9 0 .6 0 1.2-.1 1.8v-.2c-.4 7.9-.7 17.3-.8 28.1s-.1 22.2-.1 34.3c.1 12 .2 24.3.5 36.9.3 12.5.5 24.4.8 35.7.2 3.7-.3 6.5-1.5 8.2-1.1 1.8-3.7 3.2-7.8 4.3m-30.2-109.7c-3 7.1-6.3 14.6-9.6 22.6-3.4 8-6.8 16.2-10.2 24.7 3.4-1.5 6.7-2.9 9.9-4.1l9.9-3.6c0-6.7-.1-13.4-.1-20s0-13.1.1-19.6m3-121.3v-.1c-2.2 5.7-5.8 11.4-10.7 17s-10.7 11.3-17.5 16.9c1.3 1.6 2.7 3.4 4.2 5.1 1.5 1.8 3 3.5 4.6 5.2s3.1 3.4 4.6 4.9 3 2.9 4.3 4.1v-.1q2.1 1.8 2.1 4.2c0 1.1-.3 2.2-1 3.3q-1.05 1.65-2.4 3c-.9.9-1.8 1.6-2.8 2.3-.9.7-1.6 1.1-2.2 1.3l.1-.1c-.8.4-1.5.8-2.2 1.2s-1.5.7-2.3.9q-1.8.45-3.9.3c-1.4-.1-2.9-.6-4.4-1.5-1.3-.9-2.7-2-4.3-3.4-1.6-1.3-3.2-2.8-4.9-4.5-1.7-1.6-3.4-3.4-5-5.2-1.7-1.8-3.2-3.7-4.7-5.7-1.1 4.5-2.1 8.8-3.2 13-1 4.2-2 8.4-3 12.7-.4 1.6-.9 2.8-1.6 3.7s-1.6 1.6-2.9 1.9c-.8.2-1.6.3-2.4.2-1.5-.1-3-.2-4.4-.3s-2.7-.3-3.7-.7c-1.1-.4-1.9-1.1-2.6-2.1-.6-1-1-2.5-1-4.5 0-1 .1-2.2.3-3.5.4-2.5 1.1-6.2 2-11.1s1.9-10.4 3-16.3 2.3-12.1 3.6-18.5 2.7-12.3 4-17.8q2.1-8.25 4.2-14.1c1.4-3.9 2.7-6.4 4-7.4 2.4-1.9 4.8-3.8 7.4-5.7s5.1-3.7 7.7-5.3 5.1-3.1 7.7-4.3c2.5-1.3 4.9-2.2 7.2-2.8 2.7-.7 5.3-.9 7.7-.6 2.5.3 4.6 1.4 6.4 3.3q1.65 1.8 3.3 3.9c1.1 1.4 2.1 3.1 3.1 4.9.9 1.8 1.7 3.9 2.3 6.2s.9 4.8.9 7.6c0 1.6-.1 3.1-.4 4.5-.3 1.3-.7 2.7-1.2 4m-18.9-8.8c-.3-.9-1.8-1-4.3-.3-1.5.4-3.1 1-5 2-1.9.9-3.8 2.1-5.8 3.7-.9 2.8-1.8 5.8-2.6 9-.9 3.2-1.8 6.5-2.7 10v-.1c-.1.5-.3 1-.4 1.4-.1.5-.3 1-.4 1.5 3.3-2.5 6.2-5.1 8.9-7.8s4.9-5.3 6.7-7.8 3.2-4.7 4.2-6.8c1-2 1.5-3.6 1.5-4.7v-.1zm-46.3 9.6q-1.05 1.5-4.2 2.7c-3.2 1.2-6.6 2.5-10 3.9s-7.1 2.9-10.9 4.6c-.7 2.6-1.5 5.4-2.3 8.3-.8 3-1.6 6-2.5 8.9 2.7-1.1 5.4-2 8.1-2.8l.7-.2c1.8-.5 3.2-.5 4.3-.2 1.1.4 1.9 1.4 2.6 3 .7 1.5 1.3 2.9 1.6 4.3l.9 4.2-.1-.1c.2 1 .4 1.8.4 2.5 0 1.2-.4 2.3-1.1 3.3s-1.6 1.8-2.8 2.5-2.5 1.4-4 2.1-3.1 1.4-4.7 2.1h.1c-2.4 1.2-4.7 2.4-6.9 3.4l-6.6 3.3q-.75 2.4-1.5 5.1c-.5 1.8-.8 3.4-.9 4.7 2.4-1.1 4.8-2.3 7.3-3.4s5.2-2 8-2.8c1.7-.5 3-.4 4.1 0 1 .5 1.8 1.5 2.4 3.1v-.1c.7 1.5 1.4 3.2 2 5.2q.9 2.85.9 5.7c0 1.7-.3 2.9-1 3.7s-1.9 1.7-3.7 2.6c-4 2.1-8.1 4.2-12.3 6.4s-8.3 4.3-12.2 6.4l.1-.1c-1.7 1-3.2 1.6-4.4 1.9q-2.1.6-3.6.3c-1.5-.3-2-.5-2.8-1.1-.9-.6-1.8-1.3-2.7-2.2s-1.9-1.9-2.9-3v.1c-.9-.8-1.6-1.9-2.1-3-.5-1.2-.7-2.7-.7-4.5q0-1.65.3-3.3L398 390l1.2-1.8c2.5-1.4 5.2-2.9 8.2-4.4 3-1.6 6-3.1 9.2-4.6s6.5-3 9.8-4.4c3.4-1.4 6.7-2.6 10-3.7l.5-.1c2-.5 3.5-.5 4.6.2 1.1.6 1.9 1.8 2.5 3.5v-.1c.6 1.5 1.1 2.7 1.3 3.7s.5 2.1.7 3.3l-.1-.1c.3.9.4 1.8.4 2.8 0 2-.4 3.5-1.1 4.5m-65.2 46c-1.1 1.3-2.3 2.7-3.4 4s-2.4 2.7-3.8 4.1c1.8 1.3 3.3 3.2 4.4 5.7s1.7 5.2 1.7 7.9q0 4.95-1.8 9c-1.2 2.7-3 5.5-5.3 8.5h.1c-1.6 2.3-3.6 4.6-5.9 6.8s-4.7 4.4-7.2 6.4-5 3.9-7.6 5.7c-2.5 1.8-4.9 3.3-7.2 4.7h.1c-2.1 1.4-3.9 2.3-5.3 2.7-1.1.3-2 .3-2.9.2-.9-.2-1.9-.6-2.9-1.2-1.7-.5-3.4-1.2-5.1-2.2-1.7-.9-3.2-2.4-4.6-4.3l.1.1c-.8-1.1-1.5-2-1.9-2.9-.5-.9-.7-2.1-.7-3.6 0-.7 0-1.4.1-2 .1-.7.2-1.4.3-2.2.7-4.9 1.6-10.2 2.8-16s2.3-11.7 3.5-17.8 2.3-12.2 3.4-18.2c1.1-6.1 2-11.8 2.6-17.3 2.1-1.8 4.5-3.6 7.1-5.4s5.3-3.5 8.1-5q4.2-2.4 8.4-4.2c2.9-1.2 5.6-2.2 8.2-2.9 3.4-.9 6.5-1.3 9.4-1.2s5.1.9 6.7 2.5c.9 1 1.9 2 2.7 3.2.9 1.2 1.7 2.4 2.4 3.9.7 1.4 1.3 3 1.7 4.7s.6 3.5.6 5.5c0 3.7-.9 7.4-2.6 11-1.6 3.3-3.7 6.7-6.2 9.8M344.7 462c-.6 2.5-1.2 5-1.7 7.2-.6 2.3-1.1 4.6-1.7 6.9 2.5-1.6 4.7-3.2 6.8-4.8 2-1.7 3.8-3.3 5.2-4.8 1.4-1.6 2.6-3 3.4-4.4q1.2-2.1 1.2-3.6c-.1-.5-.6-.8-1.4-1-.8-.1-2 0-3.5.4-2.3.6-5 2-8.3 4.1m21.7-45.8c-1.4.4-3.1 1.1-5 2.2s-4.1 2.5-6.4 4.3c-.6 2-1.2 4.1-1.7 6.2-.6 2.2-1.1 4.4-1.7 6.8-.3.9-.5 1.7-.7 2.4 2.8-2.1 5.4-4.2 7.7-6.4s4.3-4.3 5.9-6.3 2.9-3.8 3.7-5.4c.9-1.6 1.3-2.8 1.3-3.7-.1-.7-1.1-.7-3.1-.1m-39.4 7.3c-1.9 9.9-3.9 19.2-5.9 27.9S317 468 314.8 475c-2.2 7.1-4.6 13.2-7.2 18.5s-5.4 9.4-8.5 12.5c-1.8 1.6-3.7 2.9-5.5 4-1.9 1-3.9 1.8-6.1 2.4-5.7 1.5-10.4 1.7-14.3.4-3.8-1.2-6.7-4.2-8.5-9-1.1-3-1.6-6.8-1.6-11.5 0-4.2.4-9 1.2-14.3s1.9-10.8 3.3-16.4c1.3-5.7 2.8-11.3 4.5-17.1s3.3-11.1 4.9-16.3c.6-1.7 1.2-3.1 1.9-3.9.7-.9 1.6-1.5 2.8-1.8 1.4-.4 2.9-.4 4.6-.1s3.3.8 4.8 1.6 2.8 1.9 3.8 3.2 1.5 2.8 1.5 4.6c0 1.3-.3 2.7-.8 4.3l.1-.1q-1.95 6.15-4.2 13.8c-1.5 5.1-2.8 10.1-4.1 15.2s-2.3 9.9-3.2 14.4q-1.2 6.75-1.2 11.1 0 2.25.3 3.6c.2.9.6 1.2 1.2 1.1 1.3-.3 2.6-1.9 4-4.7s2.8-6.4 4.2-10.7 2.8-9.2 4.2-14.6 2.7-10.8 4-16.3 2.4-10.8 3.5-15.9 2-9.6 2.7-13.5l-.1.2c.3-1.9.9-3.4 1.8-4.3.9-1 2-1.6 3.2-2 .9-.2 1.8-.3 2.8-.2s2 .3 3.1.5 2.1.6 3.2.9c1.1.4 2 .7 3 1.1 1.3.6 2.1 1.2 2.6 1.9s.7 1.6.7 2.7c0 .5 0 1-.1 1.5 0 .4-.1 1-.3 1.7m-61.9 131.9c2.4-4.7 5.1-9.2 8.2-13.7s6.4-8.7 9.9-12.8 7-7.5 10.3-10.4l-.3.2c1.7-1.9 4-3.6 6.9-5.2 2.8-1.6 5.9-2.7 9.3-3.4 2.3-.5 4.8-.6 7.6-.3 2.8.2 5.7.8 8.6 1.6s5.7 1.9 8.3 3.4c2.6 1.4 4.9 3 6.8 4.8 2.9 2.8 4.7 5.8 5.4 9.1s1.1 6.5 1 9.6l-.1 4.1q-.6 4.05-1.8 9.6t-2.7 11.4c-1 3.9-2.2 7.6-3.4 11.3s-2.4 6.9-3.6 9.7c-1.1 2.1-2.1 3.7-3.2 5-1.1 1.2-2.4 2-4 2.4-1.3.3-2.9.2-4.7-.4l.1.1c-11.9-2.7-17.7-8.7-17.6-18.1q0-1.65.9-5.1c.5-2.3 1.2-4.9 1.9-7.6s1.4-5.5 2-8.3 1.1-5.1 1.3-7c-.1.1-.2.2-.3.2l-.1.2c-1.7 1.3-3.7 3.3-5.8 5.9s-4.1 5.5-6 8.6-3.5 6.5-4.8 9.9c-1.3 3.5-1.9 6.7-2 9.8 0 3.4.8 6.1 2.6 8.1v-.2c3.4 3.5 7.2 6.7 11.4 9.3 4.3 2.7 8.2 5.4 12 8.1 3.7 2.7 6.9 5.7 9.5 8.9s3.8 7.2 3.8 11.8c0 3.2-.8 6.5-2.3 10.1v-.2c-1.2 3.1-2.8 6.4-4.8 10s-4.6 7.1-7.9 10.5c-3.2 3.4-7.1 6.6-11.7 9.5s-9.9 5-16.2 6.4l-1.9.4c-7.8 1.6-15.3 1.1-22.3-1.6-7-2.6-13.9-8-20.5-16.1-3.9-4.2-5.9-7.8-5.9-10.9v-.3c.2-3.5 1.8-6.5 4.7-8.9l.3-.2q5.1-3.6 10.8-4.8c2.5-.5 4.8-.6 7-.4 2.2.3 4.1 1 5.8 2.2 5 3.2 9.6 5.5 13.6 6.8 4.1 1.3 7.6 1.6 10.6 1 2.2-.4 3.9-1.3 5.2-2.7-.2-1.3-1.6-2.9-4.4-5-2.7-2.1-5.9-4.3-9.6-6.7-3.4-2.2-6.8-4.5-10.1-6.7s-6.2-4.8-8.8-7.7-4.6-6.3-6.2-10.1c-1.5-3.9-2.2-8.4-2.2-13.6.1-5.4 1.3-11.6 3.8-18.5l-.1.2c1.6-4.3 3.3-8.6 5.7-13.3m74.9 68.8c1.5-6.9 3.1-14.7 4.7-23.4s3.3-17.7 5-27.1c1.7-9.3 3.4-18 5-26s3.2-14.7 4.8-20.3c1.6-5.5 3-8.8 4.3-9.9q5.7-4.35 12.3-9c4.4-3.1 9-6 13.7-8.8q7.05-4.2 14.1-7.2c4.7-2.1 9.1-3.5 13.4-4.4 4.2-.8 8-1 11.4-.4q5.1.9 9 4.8c1.6 1.7 3.2 3.7 4.9 6s3.2 4.9 4.6 7.7 2.5 5.9 3.4 9.3 1.3 7 1.3 11c-.1 6-1.5 11.6-4.1 16.8-2.7 5.2-5.8 10.3-9.5 15.3-3.5 4.7-7.7 9.3-12.4 14.1-4.8 4.7-9.9 9.3-15.4 13.7s-11.3 8.6-17.3 12.5q-9 6-18 10.8c-1.8 7.1-3.5 14.1-5.2 20.9s-3.3 13.6-4.8 20.3c-.9 2.4-1.9 4.3-2.9 5.6s-2.5 2.2-4.6 2.6q-1.95.45-3.9.3c-2.4-.4-4.7-.8-7.1-1.3-2.4-.4-4.5-1.1-6.3-1.9-1.8-.9-3.3-2.1-4.4-3.7s-1.6-3.8-1.6-6.6c0-1.7.5-4 1.3-6.8 1.3-3 2.7-8 4.3-14.9m61.1-68.8c4.1-3.8 7.5-7.5 10.3-11s4.9-6.8 6.4-9.9 2.2-5.6 2.2-7.8c0-.2.1-.5.2-.8s0-.6-.2-.8-.8-.3-1.6-.3-2.1.2-3.9.5c-2.3.5-5 1.3-8 2.6-3.1 1.3-6.3 3.1-9.5 5.3-1.5 5-3.1 10.3-4.7 15.7s-3.3 11.2-5 17.3c5-3.3 9.7-7 13.8-10.8" style="fill:#fff"/></svg>