<svg xmlns="http://www.w3.org/2000/svg" width="128" height="128"><rect width="128" height="128" fill="#08f" ry="16"/><path fill="#fff" d="M40.158 100.976c-1.415-.347-2.736-1.342-3.55-2.672-.64-1.048-1.153-30.757-.61-35.34.297-2.5 2.265-4.366 4.906-4.65l2.113-.227.217-7.408c.231-7.892.3-8.251 2.379-12.508 5.95-12.179 22.683-15.223 32.55-5.921 5.205 4.906 6.683 8.893 6.931 18.693.12 4.755.301 6.975.57 6.992 2.898.175 4.46.92 5.674 2.707l.892 1.313V79.5c0 19.35.047 18.91-2.229 20.744l-1.094.882-23.827.06c-13.105.032-24.32-.063-24.922-.21m28.083-11.635c0-.175-.402-2.358-.894-4.85l-.893-4.532 1.023-.882c4.176-3.599 2.135-10.054-3.18-10.054-5.345 0-7.726 6.96-3.459 10.115 1.226.906 1.276 1.418.524 5.35-.291 1.521-.53 3.307-.53 3.97v1.203h3.705c2.037 0 3.704-.144 3.704-.32m7.758-37.957c-.003-6.345-.05-6.8-.857-8.535-4.41-9.47-17.592-9.348-22.01.203-.884 1.91-1.66 12.942-1.027 14.589.134.348 2.79.446 12.034.446h11.863z"/></svg>
