<svg xmlns="http://www.w3.org/2000/svg" width="512" height="512" viewBox="0 0 128 128"><path fill="#08f" d="M31.282 114.797c-1.943-.477-3.758-1.845-4.877-3.673-.09-.149-.416-.72-.502-1.633-.743-7.894-1.004-41.27-.335-46.914.407-3.436 3.112-5.998 6.74-6.388l2.903-.313.297-10.175c.317-10.842.412-11.336 3.27-17.184 8.173-16.732 31.159-20.913 44.714-8.134 7.15 6.74 9.181 12.217 9.522 25.68.164 6.532.413 9.582.783 9.604 3.982.241 6.127 1.324 7.893 3.72.423.587 1.101 1.527 1.127 2.846v23.06c0 26.583.065 25.977-3.062 28.498-.868.717-1.892 1.123-3.076 1.21l-31.159.084c-18.004.044-33.41-.086-34.238-.288m38.58-15.983c0-.242-.553-3.242-1.229-6.664l-1.225-6.226 1.405-1.211c5.736-4.946 2.932-13.814-4.368-13.814-7.345 0-10.614 9.562-4.753 13.897 1.684 1.245 1.752 1.947.72 7.349-.4 2.09-.729 4.543-.729 5.454v1.653h5.092c2.797 0 5.087-.198 5.087-.44M80.52 46.67c-.004-8.717-.07-9.343-1.177-11.727-6.06-13.008-24.168-12.84-30.237.28-1.215 2.625-2.282 17.779-1.41 20.042.183.479 3.832.612 16.53.612h16.298z"/></svg>